<?xml version="1.0" encoding="UTF-8"?>
<!DOCTYPE svg PUBLIC "-//W3C//DTD SVG 1.1//EN" "http://www.w3.org/Graphics/SVG/1.1/DTD/svg11.dtd">
<!-- Creator: CorelDRAW 2019 (64-Bit) -->
<svg xmlns="http://www.w3.org/2000/svg" xml:space="preserve" width="201.083mm" height="111.125mm" version="1.1" style="shape-rendering:geometricPrecision; text-rendering:geometricPrecision; image-rendering:optimizeQuality; fill-rule:evenodd; clip-rule:evenodd"
viewBox="0 0 20108.32 11112.5"
 xmlns:xlink="http://www.w3.org/1999/xlink"
 xmlns:xodm="http://www.corel.com/coreldraw/odm/2003">
 <defs>
  <style type="text/css">
   <![CDATA[
    .fil1 {fill:#EC2127}
    .fil0 {fill:#ED2127}
    .fil2 {fill:#FBF7F5}
    .fil3 {fill:#373435;fill-rule:nonzero}
   ]]>
  </style>
 </defs>
 <g id="Layer_x0020_1">
  <metadata id="CorelCorpID_0Corel-Layer"/>
  <g id="_2563732671872">
   <g>
    <path class="fil0" d="M7915.69 2406.97c331.5,495.27 1235.02,1472.84 1272.89,1567.26 -326.79,67.84 -414.95,-160.73 -560.74,-343.16 -149.75,-187.43 -261.69,-342.92 -410.39,-558.43 -189.13,-274.08 -593.63,-894.5 -678.08,-1249.83 116.39,155.38 261.31,412.36 376.32,584.16zm3874.14 3322.75c23.75,-235.71 -538.22,-697.56 -677.14,-836.8l-3787.57 -3782.32c-207.31,481.59 725.86,1946.99 923.85,2225.47 1037.3,1459.01 800.43,659.41 1312.06,632.34 216.74,-11.46 363.74,253.53 413.57,385.84 -237.4,207.47 -478.29,473.04 -712.13,707.31 -136.11,136.37 -725.23,561.86 -423.83,843.83 391.65,366.37 869.69,-722.45 1432.98,-1221.66 297.04,254.18 905.63,1131.78 1073.01,1242.34 195.6,129.2 424.44,9.77 445.2,-196.35z"/>
    <path class="fil1" d="M11354.57 3974.21c70.08,-187.69 302.71,-383.12 452.97,-534.51 568.38,-572.63 842.16,-1148.51 1196.11,-1616.89 -83.55,352.84 -487.92,977.1 -678.22,1249.58 -304.23,435.62 -599.47,979.54 -970.86,901.82zm-704.12 209.24c556.77,-582.75 608.3,271.6 1013.64,-44.13 379.52,-295.62 1792.18,-2455.37 1554.03,-3028.7 -269.8,217.35 -2751.9,2701.88 -2820.82,2857.71l253.15 215.12z"/>
    <path class="fil2" d="M11354.57 3974.21c371.39,77.72 666.63,-466.2 970.86,-901.82 190.3,-272.48 594.67,-896.74 678.22,-1249.58 -353.95,468.38 -627.73,1044.26 -1196.11,1616.89 -150.26,151.39 -382.89,346.82 -452.97,534.51z"/>
    <path class="fil2" d="M9188.58 3974.23c-37.87,-94.42 -941.39,-1071.99 -1272.89,-1567.26 -115.01,-171.8 -259.93,-428.78 -376.32,-584.16 84.45,355.33 488.95,975.75 678.08,1249.83 148.7,215.51 260.64,371 410.39,558.43 145.79,182.43 233.95,411 560.74,343.16z"/>
   </g>
   <path class="fil3" d="M8670.04 6856.09c-25.91,-26.67 -52.09,-46.42 -78.56,-59.41 -26.6,-12.84 -54.48,-19.33 -83.62,-19.33 -50.54,0 -91.94,17.5 -124.03,52.49 -32.25,35 -48.29,80.02 -48.29,134.77 0,54.89 15.9,99.34 47.87,133.35 31.81,34.01 73.34,51.08 124.59,51.08 30.27,0 60.4,-6.35 90.52,-19.05 30.13,-12.7 60.12,-31.75 90.11,-57.15l-9.16 159.17c-25.62,17.36 -53.5,30.62 -83.91,39.66 -30.4,9.17 -61.94,13.68 -94.74,13.68 -35.2,0 -68.84,-5.5 -101.23,-16.51 -32.23,-11 -62.08,-27.37 -89.25,-48.82 -38.58,-30.34 -68,-67.31 -88.55,-111.06 -20.42,-43.6 -30.69,-91.3 -30.69,-142.8 0,-44.45 7.6,-86.08 22.66,-124.89 15.21,-38.8 37.17,-73.23 66.03,-103.01 29.14,-29.77 62.78,-52.49 101.08,-68.44 38.16,-15.8 78.41,-23.7 120.79,-23.7 33.64,0 65.61,4.65 96.16,14.11 30.55,9.31 59.69,23.56 87.42,42.61l-15.2 153.25zm200.9 223.52c0,31.75 6.76,57.29 20.41,76.63 13.66,19.47 31.11,29.21 52.23,29.21 21.26,0 38.58,-9.74 52.23,-29.35 13.66,-19.62 20.41,-45.02 20.41,-76.49 0,-31.18 -6.75,-56.58 -20.41,-76.34 -13.65,-19.61 -30.97,-29.49 -52.23,-29.49 -21.12,0 -38.57,9.74 -52.23,29.35 -13.65,19.61 -20.41,45.01 -20.41,76.48zm-131.77 -0.28c0,-59.13 19.28,-107.95 57.85,-146.33 38.72,-38.24 87.43,-57.43 146.56,-57.43 59.41,0 108.41,19.19 147.12,57.43 38.72,38.38 58.14,87.2 58.14,146.33 0,59.27 -19.42,108.23 -58.14,146.62 -38.71,38.52 -87.71,57.71 -147.12,57.71 -58.84,0 -107.56,-19.19 -146.27,-57.71 -38.72,-38.39 -58.14,-87.35 -58.14,-146.62zm809.78 165.38c-22.81,12.99 -45.33,22.58 -67.43,28.79 -22.11,6.21 -44.92,9.31 -68.28,9.31 -61.95,0 -112.77,-18.62 -152.48,-55.88 -39.83,-37.11 -59.69,-84.24 -59.69,-141.39 0,-59.13 21.4,-108.94 64.2,-149.01 42.8,-40.08 96.44,-60.12 161.06,-60.12 23.65,0 46.88,2.68 69.4,8.05 22.53,5.36 44.35,13.4 65.18,24.27l-14.49 115.85c-20.28,-12.42 -39.84,-21.87 -58.71,-28.36 -18.86,-6.5 -36.32,-9.74 -52.51,-9.74 -29.15,0 -53.36,8.89 -72.65,26.67 -19.28,17.78 -28.86,39.79 -28.86,66.18 0,28.22 8.87,50.8 26.75,67.88 17.88,17.07 41.39,25.54 70.54,25.54 18.15,0 37.59,-3.95 58.14,-11.72 20.69,-7.9 44.63,-20.6 71.79,-38.24l-11.96 121.92zm78.56 -490.22c0,-19.9 6.89,-36.69 20.69,-50.38 13.66,-13.82 30.41,-20.74 50.26,-20.74 20.13,0 36.88,6.77 50.54,20.46 13.65,13.69 20.42,30.48 20.42,50.66 0,19.9 -6.91,36.83 -20.71,50.94 -13.64,13.97 -30.41,21.03 -50.25,21.03 -19.29,0 -35.91,-7.06 -49.98,-21.31 -13.94,-14.25 -20.97,-31.04 -20.97,-50.66zm136.84 511.39l-130.94 0 0 -372.53 130.94 -17.78 0 390.31zm226.52 0l-129.24 0 0 -372.53 119.38 0 0 62.37c19.72,-24.42 40.84,-42.62 63.07,-54.61 22.25,-12 46.47,-17.92 72.51,-17.92 39.41,0 69.26,11.28 89.54,33.86 20.41,22.58 30.55,55.46 30.55,98.92l0 249.91 -128.4 0 0 -213.5c0,-19.62 -3.94,-34.29 -11.97,-44.17 -7.88,-10.02 -19.7,-14.96 -35.47,-14.96 -22.38,0 -39.7,7.62 -51.81,22.72 -12.11,15.24 -18.16,37.25 -18.16,66.18l0 183.73zm488.38 -190.5l157.11 0 -77.57 -187.68 -79.54 187.68zm-223.85 190.5l305.08 -618.07 9.01 0 298.32 618.07 -149.37 0 -37.87 -87.21 -242.71 0 -38.72 87.21 -143.74 0zm819.22 -490.22l-23.51 0 0 165.95 30.12 0c36.05,0 63.5,-7.34 82.5,-21.88 19.01,-14.53 28.45,-35.56 28.45,-62.79 0,-28.65 -9.15,-49.25 -27.6,-62.09 -18.45,-12.84 -48.43,-19.19 -89.96,-19.19zm-162.04 490.22l0 -599.44 153.73 0c49.27,0 87.43,3.24 114.6,9.73 27.17,6.5 51.1,17.22 72.08,32.46 22.24,15.95 39.56,35.7 51.81,59.27 12.24,23.56 18.3,48.4 18.3,74.5 0,37.82 -9.57,70.84 -28.71,99.21 -19.16,28.36 -46.74,50.51 -82.79,66.6l182.46 257.67 -163.03 0 -159.65 -235.37 -20.27 0 0 235.37 -138.53 0zm659.85 0l0 -474.14 -190.06 0 0 -125.3 522.02 0 0 125.3 -189.2 0 0 474.14 -142.76 0zm400.52 0l0 -599.44 368.3 0 0 123.61 -229.77 0 0 108.38 196.82 0 0 122.76 -196.82 0 0 118.54 233.15 0 0 126.15 -371.68 0z"/>
  </g>
 </g>
</svg>
