<?xml version="1.0" encoding="UTF-8"?>
<!DOCTYPE svg PUBLIC "-//W3C//DTD SVG 1.1//EN" "http://www.w3.org/Graphics/SVG/1.1/DTD/svg11.dtd">
<!-- Creator: CorelDRAW 2019 (64-Bit) -->
<svg xmlns="http://www.w3.org/2000/svg" xml:space="preserve" width="201.083mm" height="111.125mm" version="1.1" style="shape-rendering:geometricPrecision; text-rendering:geometricPrecision; image-rendering:optimizeQuality; fill-rule:evenodd; clip-rule:evenodd"
viewBox="0 0 20108.32 11112.5"
 xmlns:xlink="http://www.w3.org/1999/xlink"
 xmlns:xodm="http://www.corel.com/coreldraw/odm/2003">
 <defs>
  <style type="text/css">
   <![CDATA[
    .fil13 {fill:#356363}
    .fil2 {fill:#386463}
    .fil11 {fill:#619297}
    .fil17 {fill:#9A3717}
    .fil14 {fill:#A33204}
    .fil10 {fill:#A33506}
    .fil19 {fill:#A9C5C6}
    .fil3 {fill:#DD2D37}
    .fil7 {fill:#DDDAD5}
    .fil16 {fill:#DE2B36}
    .fil9 {fill:#DEDBD4}
    .fil4 {fill:#DFDAD6}
    .fil15 {fill:#E1D9D6}
    .fil12 {fill:#E2BAAD}
    .fil1 {fill:#E4BAAE}
    .fil8 {fill:#E8DBC8}
    .fil6 {fill:#E8DCC6}
    .fil0 {fill:#F19519}
    .fil5 {fill:#F29418}
    .fil18 {fill:#F9C988}
   ]]>
  </style>
 </defs>
 <g id="Layer_x0020_1">
  <metadata id="CorelCorpID_0Corel-Layer"/>
  <g id="_2477824648256">
   <path class="fil0" d="M12509.6 5383.86c84.09,-379.74 25.76,-1019.69 -412.68,-656.28 -510.59,423.21 -481.26,24.34 -1061.5,149.35 -591.13,127.34 -458.7,214.89 -1089.35,-6.32 -985.45,-345.68 -1685.58,920.7 -546.9,832.16 374.9,-29.15 759.84,-215.47 1119.29,-220.56 505.15,-7.15 857.32,441.6 1654.67,216.52 212.28,-59.94 288.31,-97.4 336.47,-314.87z"/>
   <path class="fil1" d="M12569.09 7075.61c176.94,1205.56 3184.89,509.27 1508.7,-719.24 -767.6,-562.6 -1607.72,44.63 -1508.7,719.24z"/>
   <path class="fil2" d="M5799.31 7098.07c273.92,-123.2 551.28,-27.22 617.32,-361.54 157.45,-797.1 -1521.44,-669.77 -1833.04,-102.08 -142.77,260.09 -38.28,574.73 96.33,755.8 456.18,613.6 1857.45,138.98 1502.07,-189.94 -78.7,-72.85 -275.66,-78.04 -382.68,-102.24z"/>
   <path class="fil3" d="M18989.86 9533.42c-2.65,-257.54 -241.93,-323.29 -230.01,-572.8 12.02,-251.38 216.07,-174.12 -50.15,-530.4 -415.52,-556.09 -1221.61,-494.06 -1565.96,7.03 -112.14,163.18 -151.61,433.38 -132.11,651.25 19,212.18 164.31,480.42 423.24,378.98 217.19,-85.07 70.99,-390.08 120.97,-596.52 442.39,-268.32 295.46,443.93 456.24,637.73 173.22,208.78 765.81,227.68 977.78,24.73z"/>
   <path class="fil4" d="M11740.41 8564.13c59.19,-230.53 -59.46,-494.29 -250.23,-544.78 -307.07,-81.26 -292.17,250.05 -340.82,484.94 -106.23,512.7 -350.46,1051.57 278.82,1167.27 387.54,71.25 1233.57,8.27 1493.15,-192.59 159.07,-123.11 213.59,-413.97 3.63,-564.42 -214.46,-153.65 -462.92,3.76 -649.08,78.91 0.28,-175.31 120.7,-340.1 -50.17,-464.81 -150.18,-109.59 -342.83,-37.27 -485.3,35.48z"/>
   <path class="fil1" d="M2579.45 9022.71c37.2,398.71 477.4,781.83 967.64,720.57 498.97,-62.37 274.83,-199.24 502.31,-358.76 68.39,-47.96 416.56,-112.96 278.39,-548.64 -47.94,-151.18 -132.99,-123.08 -263.3,-190.79 -129.28,-67.16 -86.48,-127.45 -132.36,-279.92 -152.12,-505.47 -1439.02,-267.79 -1352.68,657.54z"/>
   <path class="fil5" d="M15184.55 8900.97c-18.76,-22.64 -27.16,-17.8 -46.57,-62.84 -23.1,-53.58 -17.25,-59.69 -27.05,-110.22 -30.44,-262.73 -183.61,-413.23 -473.36,-424.67 -286.85,-11.33 -604,6.23 -895.25,5.28 -280.03,-0.91 -666.28,-59.01 -731.76,180.38 -140.17,512.41 1069.43,586.89 1147.92,629.81 189.01,103.35 198.35,406.26 334.13,558.13 170.13,190.29 474.78,100.35 601.07,-69.38 176.88,-237.71 97.43,-418.59 90.87,-706.49z"/>
   <path class="fil5" d="M8425.38 6979.85c221.85,-1118.08 -1624.1,-556.04 -1849.95,49.47 -181.42,486.38 518.74,656.99 942.5,667.63 578.32,14.5 805.65,-204.06 907.45,-717.1z"/>
   <path class="fil1" d="M6509.64 5351.95c323.92,-952.13 -1326.59,-1041.57 -1773.11,-323.7 -287.6,462.38 200.59,779.32 674.3,781.76 480.28,2.47 964.12,-62.15 1098.81,-458.06z"/>
   <path class="fil3" d="M10898.63 6724.49c119.95,-221.66 411.69,-54.29 549.89,-287.27 -44.12,-114.92 -41.9,-142.57 -180.85,-173.34 -171.43,-37.96 -707,7.09 -812.13,175.86 -60.46,97.03 -136.43,430.55 -143.46,572.48 -28.71,580.31 951.25,668.16 1386.67,683.07 585.78,20.07 696.58,-175.63 616.99,-728.55 -811.14,-310.92 -1247.62,112.37 -1417.11,-242.25z"/>
   <path class="fil2" d="M7478.04 9243.73c456.37,-91.45 247.52,266.58 441.72,371.46 88.79,47.96 502.8,3.11 563.47,-272.34 97.1,-440.89 69.69,-1069.2 -548.73,-1107.66 -188.51,-11.73 -568.44,81.72 -727.09,153.76 -242.64,110.17 -316.5,294.75 -275.26,602.2 29.44,219.43 0.98,633.8 183.2,700.12 258.83,94.22 302.18,-309.4 362.69,-447.54z"/>
   <path class="fil3" d="M1050.32 3527.86c-43.65,224.64 -214.1,333.1 68.97,532.81 180.21,127.16 477.22,109.96 670.87,60.81 56.47,-143.67 24.38,-187.35 49.52,-358.58 161.46,47.69 130.9,129.22 298.53,174.27 411.85,110.7 814.08,-444.19 45.42,-635.17 66.6,-259.3 99.65,-381.08 -147.54,-515.5 -266.21,-144.76 -462.15,-68.4 -658.22,62.25 -219.83,146.5 -458.45,90.29 -602.26,230.28 -220.48,214.64 50.88,416.01 274.71,448.83z"/>
   <path class="fil4" d="M3819.98 6364.66c-222.38,-75.82 -702.63,-114.92 -963.55,-93.22 -339.54,28.21 -431.62,251.26 -412.57,610.36 8.36,157.66 44.81,294.18 71.48,432.51 42.5,220.6 13.06,245.01 244.51,272.46 1092.51,129.54 1072.08,135.98 1070.36,-543.08 -0.58,-225.98 9.31,-453.93 -10.23,-679.03z"/>
   <path class="fil6" d="M8891.24 6469.14c39.75,125.01 475.42,296.64 215.35,503.08 -153.02,121.47 -540.18,37.41 -542.29,325.85 -3.45,469.89 953.86,430.2 1291.79,328.99 277.01,-82.97 262.42,-342.84 147.35,-578.6 -167.68,-343.58 -105.62,-310.61 -166.42,-699.27 -95.01,-607.15 -1091.34,-337.76 -945.78,119.95z"/>
   <path class="fil7" d="M16197.2 7584.93c36.72,-436.49 -95.28,-848.86 -271.32,-1128.78 -131.33,-208.85 -186.35,-224.2 -492.35,-225.72 -943.06,-4.68 -585.13,1180.91 -434.99,1343.97 182.74,198.47 961.89,111.81 1198.66,10.53z"/>
   <path class="fil8" d="M3911.05 4064.12c435.23,0 498.56,43.6 630.62,-252.13 76.16,-170.56 132.18,-356.3 53.28,-547.17 -53.81,-130.22 -189.83,-318.21 -347.25,-355.73 -277.9,-66.21 -223.96,192.68 -574.52,-33.13 -208.52,-134.32 -355.96,-47.98 -473.09,73.53 -133.35,138.34 -192.4,305.51 -146.04,547.29 95.17,496.25 417.37,567.34 857,567.34z"/>
   <path class="fil2" d="M14043.33 2821.37c-225.66,54.77 -385.98,177.06 -536.39,283.07 -201.82,142.25 -176.75,307.15 -566.78,208.81 -285.81,-72.07 -540.7,-101.1 -378.54,280.42 193.63,455.56 1441.39,690.46 1728.55,228.79 169.9,-273.14 381.81,-1153.69 -246.84,-1001.09z"/>
   <path class="fil9" d="M12752.11 5320.03c136.09,473.07 1279.09,534.92 1545.08,268.03 106.92,-107.26 175.17,-337.07 87.94,-527.78 -127.37,-278.43 -644.46,-329.44 -987.72,-419.7 -480.67,-126.41 -779.03,214.6 -645.3,679.45z"/>
   <path class="fil8" d="M1421.32 5574.08c265.23,-72.37 325.22,85.32 542.25,192.23 154.31,76.02 471.13,85.47 615.6,-22.25 440.3,-328.33 -771.08,-1466.45 -1743.3,-691.77 -155.92,124.26 -191.59,310.73 -35.64,506.96 166.37,209.38 248.99,330.71 459.1,299.86 68.74,-93.87 94.15,-199.41 161.99,-285.03z"/>
   <path class="fil10" d="M5123.85 8124.04l-11.02 61.16 -183.39 1.01 28.97 230.77 -36.11 -7.81c89.49,258.01 459.04,182.38 101.76,610.39 -650.08,778.82 -164.67,871.22 47.96,588.01 95.14,-126.7 121.11,-221.84 299.88,-271.09 483.29,-133.16 451.22,368.18 791.21,216.37 96.94,-303.3 -368.03,-403.72 -188.79,-863.35 108.32,-277.81 446.36,-342.27 413.11,-705.86 -569.74,-193.27 -584.13,426.42 -1019.02,433.57 -55.54,-63.8 -61.19,-93.2 -115.72,-161.79 -46.07,-57.94 -99.67,-102.11 -128.84,-131.38z"/>
   <path class="fil1" d="M3006.97 1395.43c-642.07,127.7 -485.7,508.93 -176.16,760.09 235.4,190.99 757.17,353.31 1145.59,346.28 879.95,-15.92 103.26,-1319.72 -969.43,-1106.37z"/>
   <path class="fil7" d="M7024.11 1198.05c-394.36,73.58 -523.26,364.19 -640.68,753.87 -193.83,643.26 200.06,633.39 690.22,494.55 1030.6,-291.91 676.8,-1115.9 508.22,-1181.4 -110.73,-43.02 -439.23,-89.14 -557.76,-67.02z"/>
   <path class="fil8" d="M12015.08 1249.6c-212.51,48.17 -351.89,235.99 -320.53,494.49 58.48,482.11 718.71,986.7 1519.2,526.73 363.44,-208.83 331.71,-671.72 7.2,-705.87 -150.02,-15.79 -178.89,58.75 -257.89,134.68 -210.74,202.52 -385.06,39.8 -437.43,-198.49 -53.66,-244.18 -187.85,-324.69 -510.55,-251.54z"/>
   <path class="fil0" d="M8388.9 3048.61c-583.82,-148.33 -796.96,276.13 -952.74,434.72 -127.14,129.43 -378.54,150.47 -517.94,10.31 -181.59,-182.59 57.11,-292.35 -0.79,-542.81 -317.07,-184.32 -761.6,96.6 -575.23,448.63 66.95,126.44 197.78,165.65 298.51,307.36 118.78,167.11 144.43,177.82 397.03,217.51 263.05,41.35 853.69,114.36 1113.24,19.05 275.62,-101.2 375.46,-633.31 237.92,-894.77z"/>
   <path class="fil11" d="M10924.49 1843.79l-53.8 -35.99 29.51 -43.55c49.95,-90.32 99.32,-142.52 222.29,-180.27 97.36,-29.88 284.59,-18.74 337.14,-119.02 151.05,-529.36 -1466.98,-106.27 -1534.23,514.45 -53.24,491.48 379.29,452.6 782.18,477.11 426.45,25.95 836.39,31.82 849.85,-445.43l-632.94 -167.3z"/>
   <path class="fil2" d="M17709.71 7107.53c14.38,402.1 305.73,599.23 724.64,588.61 527.96,-13.39 671.29,-178.28 526.7,-726.7 -244.99,-929.15 -1281.99,-718.97 -1251.34,138.09z"/>
   <path class="fil0" d="M2325.21 2301.02c169.45,-820.34 -1142.18,-1291.31 -1508.73,-808.66 -502.26,661.31 650.94,1064.63 1508.73,808.66z"/>
   <path class="fil12" d="M17827.9 2322.43c203.82,95.33 771.49,138.04 1008.04,16.94 263.23,-134.76 185.78,-861.18 78.46,-945.37 -131.77,-103.37 -878.06,-150.96 -1045.31,-54.62 -213.7,123.09 -119.85,732.04 -41.19,983.05z"/>
   <path class="fil0" d="M3982.22 4970.72c146.84,-85.74 463.8,-106.3 515.97,-245.85 76.19,-203.86 -282.75,-237.67 -457.81,-246.36 -540.55,-26.79 -832.66,132.79 -895.71,620.16 -53.84,416.21 294.49,766.66 734.58,781.51 278.21,9.39 437.16,-112.57 303.28,-383.6 -80.41,-162.78 -257.92,-265.93 -200.31,-525.86z"/>
   <path class="fil11" d="M16914.08 8277.21c-157.98,-85.9 -447.85,-13.5 -646.45,12.05 -207.7,26.73 -381.75,106.19 -498.5,206.51 -225.13,193.43 -366.55,720.03 -74.62,969.31 275.14,234.94 830.06,227.24 842.6,-249.29 6.58,-250.44 -7.29,-385.32 129.22,-557.84 82.56,-104.35 284.49,-243.39 247.75,-380.74z"/>
   <path class="fil13" d="M16981.16 2370.17c56.63,-439.45 -141.17,-565.99 -396.97,-849.85 -217.56,-241.43 -575.37,-400.91 -839.26,27.92 -134.89,219.18 -393.49,753.5 12.44,828.71 276.65,51.26 986.3,52.6 1223.79,-6.78z"/>
   <path class="fil0" d="M14034.56 1162.29c-1192.52,276.42 1278.04,2201.83 1095.87,979.99 -34.76,-233.08 -134.89,-302.83 -272.68,-427.16 -298.93,-269.75 -400.82,-650.73 -823.19,-552.83z"/>
   <path class="fil11" d="M15876.41 5129.01c-46.29,-220.51 18.67,-354.89 -172.66,-462.5 -763.06,-429.22 -887.47,685.29 -676.02,900.65 139.47,142.04 838.89,259.66 1072.62,199.96 162.91,-41.62 209.01,-251.84 195.12,-445.34 -19.9,-277.24 -194.52,-185.93 -419.06,-192.77z"/>
   <path class="fil11" d="M5953.92 4124.32c216.1,0.26 373.87,-87.51 315.38,-326.02 -75.24,-306.79 -321.69,-175.05 -596.45,-717.61 -432.46,-853.94 -745.94,132.48 -691.73,677.12 38.02,382.16 606.11,366.05 972.8,366.51z"/>
   <path class="fil10" d="M727.32 7203.29c76.68,444.66 226.14,559.39 733.06,459.67 472.81,-93.01 456.14,-332.67 237.19,-701.93 -457.24,-771.17 -1183.13,-992.28 -970.25,242.26z"/>
   <path class="fil6" d="M14973.97 3965.98c506.17,167.93 464.89,-212.42 581.57,-268.56 330.08,-51.15 405.11,135.24 658.39,72.73 98.52,-253.39 -17.1,-463.33 -115.46,-645.91 -140.21,-260.24 -287.62,-273.97 -624.58,-251.82 -737.71,48.46 -573.65,261.29 -516.43,666.08 23.99,169.62 -14.34,268.76 16.51,427.48z"/>
   <path class="fil10" d="M10185.99 3800.1c367.66,74.29 353.86,-172.61 831.14,-27.38 368.02,111.97 260.9,41.06 382.06,3.57 130.33,-40.32 311.26,23.97 478.12,24.03 31.21,-159.02 83.37,-349.78 48.81,-523.14 -395.66,-346.13 -827.76,-18.17 -1160.74,-152.91 -197.39,-79.87 -378.49,-142.57 -500.88,61.09 -99.63,165.73 -134.2,436.64 -78.51,614.74z"/>
   <path class="fil14" d="M4535.79 1406.34c-483.9,247.65 493.36,1273.36 1220.95,781.87 115.07,-77.73 251.19,-197.04 241.5,-378.36 -25.58,-478.63 -634.8,-294.91 -901.02,-357 -166.52,-38.85 -388.59,-134.98 -561.43,-46.51z"/>
   <path class="fil11" d="M1488.34 8852.7c577.32,-453.99 350.35,-684.19 13.8,-549.16 -317.7,127.46 -607.71,353.98 -729.35,615.11 -111.15,238.58 -252.38,853.63 412.98,795.43 673.24,-58.89 320.16,-626.04 302.57,-861.38z"/>
   <path class="fil11" d="M7088.4 5575.38c153.52,210.08 1040.46,445.45 1068.73,-30.57 40.97,-690.02 28.69,-1008.25 -543.57,-993.73 -626.95,15.91 -161.53,464.16 -141.33,513.59 -103.33,228.92 -385.78,190.94 -383.83,510.71z"/>
   <path class="fil15" d="M9051.38 2912.33c-259.26,87.38 -458.43,342.06 -393.6,697.31 67.8,371.49 342.88,407.69 727.23,356.74 191.69,-25.42 340.28,6.49 379.68,-164.03 33.1,-143.25 0.7,-367.41 -49.39,-490.07 -84.02,-205.7 -320.61,-515.64 -663.92,-399.95z"/>
   <path class="fil10" d="M16880.34 6842.54c-111.85,-427.7 564.5,-59.96 390.68,-546.76 -228.94,-56.25 -515.68,-47.91 -719.23,75.56 -287.57,174.41 -421.41,1515.63 1005.29,1295.8 57.07,-335.18 -108.47,-291.87 -392.56,-324.59 -97.51,-11.22 -192.44,-57.53 -154.24,-189.89 30.4,-105.33 128.08,-91.89 216.56,-140.88 -71.04,-163.55 -189.3,-105.88 -346.5,-169.24z"/>
   <path class="fil12" d="M9251.73 8364.13c-48.12,92.88 -80.21,965.01 -17.59,1113.47 101.49,240.66 577.64,381.01 818.92,165.54 273.94,-244.64 93.38,-670.96 -165.47,-789.06 -207.71,-94.78 -224.2,-50.73 -295.9,-277.51 -48.81,-154.41 -132.83,-281.05 -339.96,-212.44z"/>
   <path class="fil16" d="M17963.21 5160.44c32.86,318.37 164.77,637.02 502.12,590.44 277.73,-38.35 540.03,-262.56 531.58,-553.9 -16.28,-562.56 -1135.01,-1018.07 -1033.7,-36.54z"/>
   <path class="fil3" d="M9125.78 1343.9c-270.17,-153.77 -616.47,-119.49 -640.37,243.56 -17.12,260.07 32.77,209.24 -56.81,466.59 -190.24,546.57 810.17,466.84 939.88,96.73 70.45,-201 0.76,-298.75 -103.43,-397.62 -169.12,-160.45 -102.5,-158.09 -139.27,-409.26z"/>
   <path class="fil4" d="M17891.08 2846.92c-272.82,54.76 -157.41,236.03 -8.17,344.58 170.5,124 212.2,169.48 232.92,436.55 40.96,527.61 357.87,432.68 438.76,277.46 48.7,-93.42 25.04,-192.16 45.92,-303.7 42.3,-226.02 177.17,-174.35 314.6,-323.19 125.07,-135.47 106.75,-350.53 -128.57,-348.39 -200.13,1.83 -282.82,276.1 -478.27,127.69 -86.57,-65.74 -21.21,-85.63 -161.29,-166.1 -71.66,-41.17 -163.95,-63.36 -255.9,-44.9z"/>
   <path class="fil10" d="M16732.02 2939.83c-258.19,98.55 -256.38,404.54 -171.1,675.31 97.48,309.46 249.77,391.99 625.15,329.4 468.54,-78.1 63.38,-390.99 -1.99,-531.55 -109.7,-235.95 -125.54,-597.79 -452.06,-473.16z"/>
   <path class="fil4" d="M16554.5 5479.63c144.62,82.96 920.58,210.4 970.96,25.49 49.83,-182.88 -312.11,-642.1 -391.03,-724.55 -309.11,-27.58 -640.83,401.82 -579.93,699.06z"/>
   <path class="fil17" d="M4922.3 8409.17l36.11 7.81 -28.97 -230.77 183.39 -1.01 11.02 -61.16c-123.31,-17.13 -179.08,-13.64 -275.43,17.09 -50.55,149.64 -68.66,202.29 73.88,268.04z"/>
   <path class="fil18" d="M15184.55 8900.97c-8.53,-48.97 -4.01,-62.24 -25.72,-112.54 -19.82,-45.93 -27.29,-37.5 -47.9,-60.52 9.8,50.53 3.95,56.64 27.05,110.22 19.41,45.04 27.81,40.2 46.57,62.84z"/>
   <path class="fil19" d="M10924.49 1843.79c-31.65,-42.99 -6.42,-3.02 -24.29,-79.54l-29.51 43.55 53.8 35.99z"/>
  </g>
 </g>
</svg>
